<?xml version="1.0" encoding="UTF-8" standalone="no"?>
<svg
   xmlns:dc="http://purl.org/dc/elements/1.1/"
   xmlns:cc="http://creativecommons.org/ns#"
   xmlns:rdf="http://www.w3.org/1999/02/22-rdf-syntax-ns#"
   xmlns:svg="http://www.w3.org/2000/svg"
   xmlns="http://www.w3.org/2000/svg"
   xmlns:sodipodi="http://sodipodi.sourceforge.net/DTD/sodipodi-0.dtd"
   xmlns:inkscape="http://www.inkscape.org/namespaces/inkscape"
   width="297mm"
   height="210mm"
   viewBox="0 0 297 210"
   version="1.1"
   id="svg8"
   inkscape:version="1.0.1 (3bc2e813f5, 2020-09-07)"
   sodipodi:docname="drawing.svg">
  <defs
     id="defs2" />
  <sodipodi:namedview
     id="base"
     pagecolor="#ffffff"
     bordercolor="#666666"
     borderopacity="1.0"
     inkscape:pageopacity="0.0"
     inkscape:pageshadow="2"
     inkscape:zoom="0.33557348"
     inkscape:cx="1241.8425"
     inkscape:cy="560"
     inkscape:document-units="mm"
     inkscape:current-layer="layer1"
     inkscape:document-rotation="0"
     showgrid="false"
     inkscape:window-width="1366"
     inkscape:window-height="705"
     inkscape:window-x="-8"
     inkscape:window-y="-8"
     inkscape:window-maximized="1" />
  <metadata
     id="metadata5">
    <rdf:RDF>
      <cc:Work
         rdf:about="">
        <dc:format>image/svg+xml</dc:format>
        <dc:type
           rdf:resource="http://purl.org/dc/dcmitype/StillImage" />
        <dc:title></dc:title>
      </cc:Work>
    </rdf:RDF>
  </metadata>
  <g
     inkscape:label="Layer 1"
     inkscape:groupmode="layer"
     id="layer1">
    <path
       id="path12"
       style="fill:#ffffff;stroke-width:0.264583"
       d="m 114.98249,63.848299 c -0.30781,8.522808 3.15466,16.573204 3.15159,25.075514 0.0881,8.58693 0.51326,17.199297 -0.004,25.775167 -0.54313,7.709 -3.81169,16.12807 -11.26019,19.54929 0.009,-0.2946 5.08542,-2.85791 6.58262,-4.13796 -5.29888,3.48078 -8.26503,-4.13429 -5.92379,-8.16784 3.43055,-10.38605 11.80157,-17.98905 20.31941,-24.346487 4.64825,-3.8093 9.47678,-7.41181 14.69811,-10.39901 -2.41277,1.62355 -7.43532,3.91346 -8.40536,4.84681 4.3058,-0.76518 1.2368,6.89945 2.36263,9.448007 0.11612,5.06035 4.79242,8.96628 9.73527,8.7856 4.61117,0.23986 8.41684,-2.87853 12.46671,-4.58683 4.87061,-2.8256 5.66628,-10.381807 1.86808,-14.431867 -2.74619,-3.12972 -7.39995,-9.37063 -11.58344,-7.71029 -1.62888,1.86196 -4.96964,4.16521 -6.04443,5.30414 5.14895,-1.34022 10.38961,0.54358 15.41392,1.58262 6.00397,1.00046 12.22475,1.46193 18.26285,0.56895 5.22184,-2.1097 12.0806,-4.0582 13.74855,-10.192 0.91253,-6.191038 -8.07626,-8.482138 -12.01147,-4.798914 -1.84467,1.275814 -8.48646,4.470774 -7.64348,4.073334 -2.55093,3.23352 -3.47752,7.41911 -3.5632,11.54603 -1.08117,5.2726 2.73482,10.490217 8.09013,11.142017 4.90576,0.64416 10.08245,1.03989 14.89003,-0.36135 2.82853,-2.25681 5.65707,-4.513607 8.4856,-6.770417 -4.15451,2.02172 -9.03518,1.30827 -13.5105,1.11663 -5.0168,0.0853 -9.47811,-4.32533 -8.36821,-9.42718 0.0856,-4.45604 1.1435,-9.41352 5.32471,-11.831923 -3.21023,2.068313 -6.52813,3.962903 -9.83822,5.865113 3.46688,-2.57574 11.0533,0.71494 7.67004,5.39152 -2.64799,2.73151 3.28279,-1.28466 4.65075,-1.74392 1.98534,-0.91724 6.59461,-3.77331 1.9583,-1.30427 -4.5304,2.4115 -9.95143,1.21529 -14.89202,1.15438 -4.54592,-0.23383 -8.84914,-1.84622 -13.29021,-2.56771 -5.06576,-1.07905 -9.63025,0.52846 -13.98261,3.05312 -3.84524,1.00457 -2.96561,4.45225 0.36018,5.17352 3.96286,2.89893 9.00751,6.89397 8.57904,12.322097 0.77156,2.46108 -5.311,7.34526 -1.00797,4.19752 1.72665,-1.14366 7.04528,-4.19444 6.81307,-4.06546 -4.39236,2.33199 -11.5915,0.87953 -12.76749,-4.589277 -1.56174,-4.00551 2.3266,-12.66392 -3.85048,-13.15023 -4.08281,1.2314 -7.27177,4.86473 -11.27927,6.62646 -7.29918,4.73291 -14.06319,10.255427 -20.64182,15.929467 -6.21165,6.038 -12.084337,13.4672 -13.062136,22.35229 -0.942623,5.07409 4.853346,9.56248 9.078406,5.88262 6.64594,-3.60733 14.62274,-6.67064 17.96374,-14.0189 4.59148,-9.62723 2.75825,-20.49818 3.22316,-30.774837 0.21568,-7.78244 -0.71851,-15.543594 -2.61406,-23.085166 -1.25012,-2.358176 0.7125,-8.898955 -1.3411,-8.790101 -2.93718,1.496576 -5.87439,2.993137 -8.81156,4.489723 z" />
  </g>
</svg>
